<?xml version="1.0" encoding="UTF-8"?>
<svg id="Layer_2" data-name="Layer 2" xmlns="http://www.w3.org/2000/svg" viewBox="0 0 646.92 800">
  <defs>
    <style>
      .cls-1 {
        fill: #6f0b20;
      }
    </style>
  </defs>
  <g id="Capa_1" data-name="Capa 1">
    <g>
      <path class="cls-1" d="m555.54,95.85h-124.53C424.8,41.98,378.97,0,323.46,0s-101.33,41.98-107.54,95.85h-124.53C40.99,95.85,0,136.85,0,187.25v4.69c0,38.51,23.98,71.47,57.76,84.9v431.76c0,50.4,41,91.4,91.39,91.4h348.63c50.39,0,91.39-41.01,91.39-91.4v-431.76c33.78-13.43,57.76-46.39,57.76-84.9v-4.69c0-50.39-41-91.4-91.39-91.4Zm-232.07-52.5c31.57,0,57.92,22.63,63.75,52.5h-127.49c5.83-29.88,32.18-52.5,63.74-52.5Zm222.36,665.26c0,26.5-21.56,48.06-48.05,48.06H149.15c-26.49,0-48.05-21.56-48.05-48.06v-425.27h444.72v425.27Zm57.76-516.67c0,26.5-21.56,48.06-48.05,48.06H91.39c-26.49,0-48.05-21.56-48.05-48.06v-4.69c0-26.5,21.56-48.06,48.05-48.06h464.15c26.49,0,48.05,21.56,48.05,48.06v4.69h0Z"/>
      <path class="cls-1" d="m207.27,701.22c11.97,0,21.67-9.71,21.67-21.67v-244.02c0-11.97-9.7-21.67-21.67-21.67s-21.67,9.71-21.67,21.67v244.02c0,11.97,9.7,21.67,21.67,21.67Z"/>
      <path class="cls-1" d="m323.46,701.22c11.97,0,21.67-9.71,21.67-21.67v-244.02c0-11.97-9.71-21.67-21.67-21.67s-21.67,9.71-21.67,21.67v244.02c0,11.97,9.7,21.67,21.67,21.67Z"/>
      <path class="cls-1" d="m439.66,701.22c11.97,0,21.67-9.71,21.67-21.67v-244.02c0-11.97-9.7-21.67-21.67-21.67s-21.67,9.71-21.67,21.67v244.02c0,11.97,9.71,21.67,21.67,21.67Z"/>
    </g>
  </g>
</svg>