<?xml version="1.0" encoding="UTF-8"?>
<svg id="Layer_2" data-name="Layer 2" xmlns="http://www.w3.org/2000/svg" viewBox="0 0 300 225">
  <defs>
    <style>
      .cls-1 {
        fill: #f8eacb;
        fill-rule: evenodd;
      }
    </style>
  </defs>
  <g id="Layer_1-2" data-name="Layer 1">
    <path class="cls-1" d="m213.13,41.61c15.31,0,27.71,12.53,27.71,27.98s-12.41,27.98-27.71,27.98-27.71-12.53-27.71-27.98h0c0-15.45,12.41-27.98,27.71-27.98Zm66.73,183.39H20.17c-5.35-.02-10.47-2.19-14.23-6.02h0c-3.79-3.8-5.92-8.98-5.93-14.37V20.36c0-5.4,2.13-10.58,5.91-14.4h0C9.69,2.15,14.82,0,20.17,0h259.69c5.34.01,10.46,2.17,14.23,5.99h0c3.78,3.82,5.91,9,5.91,14.4v184.23c0,5.39-2.13,10.56-5.91,14.37h0c-3.77,3.83-8.89,5.99-14.23,6.02Zm-17.95-23.25l-48.03-77.36c-3.25-5.21-10.06-6.77-15.22-3.49-1.4.89-2.58,2.08-3.46,3.49l-22.68,36.81,24.68,40.55h-10.13l-67.32-108.47c-6.2-8.36-16.14-7.72-21.68,0l-65.92,108.47h-9.16V23.22h253.93v178.53h-15.02Z"/>
  </g>
</svg>